<?xml version="1.0" standalone="no"?>
<!DOCTYPE svg PUBLIC "-//W3C//DTD SVG 20010904//EN"
 "http://www.w3.org/TR/2001/REC-SVG-20010904/DTD/svg10.dtd">
<svg version="1.0" xmlns="http://www.w3.org/2000/svg"
 width="779.000000pt" height="1280.000000pt" viewBox="0 0 779.000000 1280.000000"
 preserveAspectRatio="xMidYMid meet">
<metadata>
Created by potrace 1.15, written by Peter Selinger 2001-2017
</metadata>
<g transform="translate(0.000000,1280.000000) scale(0.100000,-0.100000)"
fill="#e91e63" stroke="none">
<path d="M6145 9435 c-76 -38 -227 -192 -288 -292 -29 -48 -35 -52 -70 -53
-21 0 -57 -10 -80 -22 -36 -19 -56 -22 -142 -20 -72 1 -115 -3 -155 -16 l-55
-18 -37 39 -37 40 -76 -5 c-55 -4 -78 -1 -86 8 -6 7 -38 27 -71 43 -40 20 -81
53 -125 101 -59 64 -79 78 -190 131 -67 32 -131 59 -141 59 -10 0 -28 -10 -40
-23 -26 -28 -29 -81 -7 -153 8 -27 15 -66 15 -88 0 -53 26 -150 57 -210 23
-44 26 -62 24 -131 -2 -68 1 -87 22 -128 l24 -47 -42 -85 c-56 -111 -72 -199
-56 -300 10 -61 10 -82 -3 -127 -23 -81 -28 -139 -18 -186 8 -34 6 -54 -10
-105 -28 -84 -28 -229 -2 -312 l20 -60 -24 -57 c-18 -47 -22 -73 -20 -136 l3
-77 -82 -47 c-249 -140 -422 -317 -538 -551 -29 -59 -69 -127 -88 -150 -68
-83 -134 -196 -157 -268 -13 -41 -47 -110 -76 -154 -96 -148 -203 -382 -303
-661 -40 -113 -61 -157 -107 -220 -172 -238 -215 -512 -129 -830 18 -70 20
-88 9 -98 -10 -10 -119 -14 -481 -19 -257 -4 -533 -11 -613 -17 -669 -47
-1205 -114 -1365 -170 -219 -77 -375 -190 -428 -308 -51 -113 -46 -249 12
-314 23 -26 37 -32 84 -36 73 -6 124 8 267 73 120 55 225 84 400 109 155 23
313 33 960 61 322 14 722 32 890 40 271 13 306 13 325 0 138 -103 382 -237
495 -274 36 -11 94 -25 130 -31 92 -14 318 -12 434 4 l98 14 47 -35 c80 -62
125 -77 231 -80 52 -1 127 -5 165 -9 64 -5 73 -4 108 20 35 24 42 25 72 15 28
-10 37 -10 58 4 24 15 26 15 70 -28 36 -34 57 -46 103 -55 31 -7 75 -9 96 -6
24 4 56 1 83 -8 39 -14 49 -14 97 0 29 9 86 19 126 23 58 6 81 14 116 39 36
26 49 30 72 23 41 -11 181 -6 236 8 120 32 130 114 26 227 -36 39 -41 50 -45
108 l-6 63 49 8 c64 9 122 66 153 148 29 80 43 228 32 357 -7 80 -5 123 6 180
14 75 21 242 14 355 -3 53 1 71 38 154 113 253 133 463 79 843 l-22 157 35 38
c87 96 114 182 106 329 -6 102 -6 102 29 167 46 87 74 201 74 302 0 69 3 85
20 100 97 88 1 343 -182 482 -45 34 -59 51 -64 79 -10 56 1 119 30 166 15 24
42 66 60 95 41 65 65 139 76 239 5 44 18 113 30 154 30 105 30 235 0 324 -22
66 -96 179 -125 190 -8 3 -15 18 -15 33 0 15 -11 54 -24 86 -22 52 -23 66 -15
120 25 177 19 482 -12 599 -18 69 -86 96 -154 63z"/>
</g>
</svg>
