<?xml version="1.0" standalone="no"?>
<!DOCTYPE svg PUBLIC "-//W3C//DTD SVG 20010904//EN"
 "http://www.w3.org/TR/2001/REC-SVG-20010904/DTD/svg10.dtd">
<svg version="1.0" xmlns="http://www.w3.org/2000/svg"
 width="1280.000000pt" height="833.000000pt" viewBox="0 0 1280.000000 833.000000"
 preserveAspectRatio="xMidYMid meet">
<metadata>
Created by potrace 1.15, written by Peter Selinger 2001-2017
</metadata>
<g transform="translate(0.000000,833.000000) scale(0.100000,-0.100000)"
fill="#4FB0C6" stroke="none">
<path d="M4945 8324 c-301 -44 -462 -102 -675 -245 -51 -34 -139 -106 -194
-159 l-101 -97 -75 -7 c-862 -82 -1811 -586 -2555 -1357 -730 -757 -1155
-1667 -1155 -2475 l0 -151 -40 -7 c-68 -11 -149 -104 -150 -171 0 -40 22 -96
51 -129 l30 -34 -23 -43 c-46 -89 -14 -199 72 -248 34 -19 53 -22 106 -19 l64
3 45 -133 c412 -1209 1568 -2349 2819 -2778 380 -130 704 -182 1080 -171 277
8 557 49 890 131 l140 34 52 -44 c183 -157 427 -235 690 -221 466 25 1157 350
1494 703 172 180 285 393 340 639 l23 100 136 92 c431 290 847 637 1111 927
l104 115 76 -147 c185 -359 417 -662 761 -997 632 -616 1536 -1154 2214 -1320
260 -63 433 -56 493 20 79 100 15 270 -322 848 -38 64 -67 120 -64 122 2 3 31
0 64 -6 77 -15 230 -7 269 14 78 40 99 105 71 218 -20 80 -145 332 -270 548
-80 136 -92 162 -73 157 86 -23 188 -38 244 -34 57 4 69 8 90 33 51 59 23 134
-179 486 -302 526 -431 839 -482 1169 -24 153 -29 276 -16 410 36 386 159 714
470 1255 165 286 219 395 226 462 6 46 4 54 -19 77 -24 24 -32 26 -119 25 -56
0 -121 -7 -163 -19 -38 -10 -71 -17 -72 -16 -1 1 41 76 94 166 246 423 315
606 266 700 -37 71 -141 100 -300 81 -52 -6 -98 -10 -100 -7 -2 2 56 110 131
239 165 288 218 392 256 507 46 137 36 206 -36 251 -37 23 -48 24 -184 24
-131 -1 -158 -4 -274 -34 -779 -199 -1781 -829 -2404 -1510 -260 -285 -477
-596 -604 -867 l-39 -83 -207 208 c-212 213 -324 314 -539 484 -107 86 -458
342 -497 364 -8 4 -31 55 -51 113 -204 589 -645 1024 -1430 1411 -408 201
-724 311 -1060 369 -115 20 -425 35 -500 24z"/>
</g>
</svg>
